# xmcd CD database file
#
# Track frame offsets:
#	150
#	10923
#	21940
#	74310
#	87847
#	97651
#	113455
#	126194
#	138120
#	153843
#	164443
#	176226
#	187365
#	199015
#	219164
#
# Disc length: 3053 seconds
#
# Revision: 0
# Processed by: cddbd v1.5.1PL2 Copyright (c) Steve Scherf et al.
# Submitted via: CDex 1.51
#
DISCID=c10beb0f
DTITLE=Various Artist - It's only BLUES but I like it
DYEAR=2005
DGENRE=Blues
TTITLE0=B.B. KING - Recession Blues (1955)
TTITLE1=JOHN LEE HOOKER - Baby, Please Don't Go (1961)
TTITLE2=JIMI HENDRIX - Red House (1967)
TTITLE3=ALBERT KING - Bad Luck Blues (1953)
TTITLE4=JOHN MAYALL and THE BLUESBREAKERS - I'm Your Witch Doctor (1965)
TTITLE5=YARDBIRDS feat. ERIC CLAPTON - Louise (1964)
TTITLE6=MUDDY WATERS - (I'm Your) Hoochie Coochie Man (1954)
TTITLE7=BUDDY GUY - Going home (1967)
TTITLE8=MEMPHIS SLIM - Forty Four Blues (1953)
TTITLE9=HOWLIN' WOLF - Somebody In My Home (1962)
TTITLE10=KOKO TAYLOR - I'm A Little Mixed Up (1969)
TTITLE11=BIG BILL BROONZY - Jacqueline (1953)
TTITLE12=SONNY BOY WILLIAMSON - Don't Start Me Talking (1955)
TTITLE13=LIGHTNING HOPKINS - Glory Be (1962)
TTITLE14=OTIS RUSH - I Can't Stop, Baby (1962)
EXTD=YEAR: 2005
EXTT0=
EXTT1=
EXTT2=
EXTT3=
EXTT4=
EXTT5=
EXTT6=
EXTT7=
EXTT8=
EXTT9=
EXTT10=
EXTT11=
EXTT12=
EXTT13=
EXTT14=
PLAYORDER=
